<svg data-v-423bf9ae="" xmlns="http://www.w3.org/2000/svg" viewBox="0 0 686 97" class="iconLeft"><!----><!----><!----><g data-v-423bf9ae="" id="50afa4bd-67e9-49a4-8b83-938ed75754dd" fill="#FFFFFF" transform="matrix(6.349206477356088,0,0,6.349206477356088,89.59551693925698,10.845174594020378)"><path d="M4.93 6.85L4.93 5.28L8.61 5.28L8.61 9.84L8.61 9.84Q8.27 10.02 7.81 10.17L7.81 10.17L7.81 10.17Q7.35 10.32 6.85 10.42L6.85 10.42L6.85 10.42Q6.36 10.53 5.87 10.59L5.87 10.59L5.87 10.59Q5.39 10.65 5.03 10.65L5.03 10.65L5.03 10.65Q4.35 10.65 3.59 10.45L3.59 10.45L3.59 10.45Q2.83 10.25 2.18 9.72L2.18 9.72L2.18 9.72Q1.53 9.20 1.09 8.28L1.09 8.28L1.09 8.28Q0.66 7.36 0.66 5.92L0.66 5.92L0.66 5.92Q0.66 4.47 1.08 3.54L1.08 3.54L1.08 3.54Q1.50 2.62 2.18 2.10L2.18 2.10L2.18 2.10Q2.87 1.58 3.76 1.39L3.76 1.39L3.76 1.39Q4.65 1.20 5.60 1.20L5.60 1.20L5.60 1.20Q6.03 1.20 6.52 1.27L6.52 1.27L6.52 1.27Q7 1.33 7.40 1.40L7.40 1.40L7.40 1.40Q7.80 1.47 8.06 1.54L8.06 1.54L8.06 1.54Q8.32 1.61 8.32 1.61L8.32 1.61L8.32 3.19L8.32 3.19Q8.32 3.19 8.08 3.13L8.08 3.13L8.08 3.13Q7.84 3.07 7.45 3.00L7.45 3.00L7.45 3.00Q7.06 2.93 6.57 2.86L6.57 2.86L6.57 2.86Q6.09 2.80 5.60 2.80L5.60 2.80L5.60 2.80Q4.91 2.80 4.38 2.94L4.38 2.94L4.38 2.94Q3.84 3.08 3.46 3.44L3.46 3.44L3.46 3.44Q3.09 3.79 2.90 4.40L2.90 4.40L2.90 4.40Q2.70 5.00 2.70 5.92L2.70 5.92L2.70 5.92Q2.70 6.75 2.87 7.33L2.87 7.33L2.87 7.33Q3.04 7.91 3.35 8.27L3.35 8.27L3.35 8.27Q3.65 8.64 4.08 8.81L4.08 8.81L4.08 8.81Q4.51 8.99 5.03 8.99L5.03 8.99L5.03 8.99Q5.56 8.99 5.89 8.94L5.89 8.94L5.89 8.94Q6.23 8.89 6.43 8.82L6.43 8.82L6.43 8.82Q6.66 8.75 6.78 8.65L6.78 8.65L6.78 6.85L4.93 6.85ZM10.50 10.50L10.50 8.54L12.46 8.54L12.46 10.50L10.50 10.50ZM18.58 1.20L18.58 1.20L18.58 1.20Q19.28 1.20 20.06 1.41L20.06 1.41L20.06 1.41Q20.85 1.61 21.51 2.14L21.51 2.14L21.51 2.14Q22.18 2.67 22.61 3.59L22.61 3.59L22.61 3.59Q23.04 4.51 23.04 5.94L23.04 5.94L23.04 5.94Q23.04 7.38 22.61 8.29L22.61 8.29L22.61 8.29Q22.18 9.21 21.51 9.74L21.51 9.74L21.51 9.74Q20.85 10.26 20.06 10.46L20.06 10.46L20.06 10.46Q19.28 10.65 18.58 10.65L18.58 10.65L18.58 10.65Q17.88 10.65 17.09 10.46L17.09 10.46L17.09 10.46Q16.30 10.26 15.63 9.74L15.63 9.74L15.63 9.74Q14.97 9.21 14.53 8.29L14.53 8.29L14.53 8.29Q14.08 7.38 14.08 5.94L14.08 5.94L14.08 5.94Q14.08 4.51 14.53 3.59L14.53 3.59L14.53 3.59Q14.97 2.67 15.63 2.14L15.63 2.14L15.63 2.14Q16.30 1.61 17.09 1.41L17.09 1.41L17.09 1.41Q17.88 1.20 18.58 1.20ZM18.58 9.13L18.58 9.13L18.58 9.13Q19.14 9.13 19.59 8.95L19.59 8.95L19.59 8.95Q20.03 8.76 20.35 8.38L20.35 8.38L20.35 8.38Q20.66 7.99 20.83 7.39L20.83 7.39L20.83 7.39Q21 6.79 21 5.94L21 5.94L21 5.94Q21 5.10 20.83 4.49L20.83 4.49L20.83 4.49Q20.66 3.89 20.35 3.51L20.35 3.51L20.35 3.51Q20.03 3.12 19.59 2.93L19.59 2.93L19.59 2.93Q19.14 2.74 18.58 2.74L18.58 2.74L18.58 2.74Q17.46 2.74 16.79 3.51L16.79 3.51L16.79 3.51Q16.13 4.27 16.13 5.94L16.13 5.94L16.13 5.94Q16.13 6.79 16.30 7.39L16.30 7.39L16.30 7.39Q16.48 7.99 16.80 8.38L16.80 8.38L16.80 8.38Q17.12 8.76 17.57 8.95L17.57 8.95L17.57 8.95Q18.02 9.13 18.58 9.13ZM24.67 10.50L24.67 8.54L26.63 8.54L26.63 10.50L24.67 10.50ZM34.59 10.50L33.81 8.40L30.63 8.40L29.85 10.50L27.72 10.50L31.08 1.36L33.38 1.36L36.74 10.50L34.59 10.50ZM31.09 6.64L33.36 6.64L33.36 6.64Q33.36 6.64 33.24 6.34L33.24 6.34L33.24 6.34Q33.12 6.05 32.95 5.61L32.95 5.61L32.95 5.61Q32.77 5.17 32.57 4.66L32.57 4.66L32.57 4.66Q32.37 4.16 32.23 3.77L32.23 3.77L32.23 3.77Q31.91 4.56 31.65 5.19L31.65 5.19L31.65 5.19Q31.54 5.46 31.44 5.72L31.44 5.72L31.44 5.72Q31.35 5.98 31.26 6.18L31.26 6.18L31.26 6.18Q31.18 6.38 31.14 6.51L31.14 6.51L31.14 6.51Q31.09 6.64 31.09 6.64L31.09 6.64ZM37.83 10.50L37.83 8.54L39.79 8.54L39.79 10.50L37.83 10.50ZM40.87 1.36L47.92 1.36L47.92 2.88L45.37 2.88L45.37 10.50L43.43 10.50L43.43 2.88L40.87 2.88L40.87 1.36ZM60.59 1.36L60.59 1.36L60.59 10.50L58.02 10.50L54.82 3.81L54.82 10.50L52.96 10.50L52.96 1.36L55.54 1.36L58.73 8.05L58.73 1.36L60.59 1.36ZM66.78 1.20L66.78 1.20L66.78 1.20Q67.48 1.20 68.26 1.41L68.26 1.41L68.26 1.41Q69.05 1.61 69.71 2.14L69.71 2.14L69.71 2.14Q70.38 2.67 70.81 3.59L70.81 3.59L70.81 3.59Q71.25 4.51 71.25 5.94L71.25 5.94L71.25 5.94Q71.25 7.38 70.81 8.29L70.81 8.29L70.81 8.29Q70.38 9.21 69.71 9.74L69.71 9.74L69.71 9.74Q69.05 10.26 68.26 10.46L68.26 10.46L68.26 10.46Q67.48 10.65 66.78 10.65L66.78 10.65L66.78 10.65Q66.08 10.65 65.29 10.46L65.29 10.46L65.29 10.46Q64.50 10.26 63.83 9.74L63.83 9.74L63.83 9.74Q63.17 9.21 62.73 8.29L62.73 8.29L62.73 8.29Q62.29 7.38 62.29 5.94L62.29 5.94L62.29 5.94Q62.29 4.51 62.73 3.59L62.73 3.59L62.73 3.59Q63.17 2.67 63.83 2.14L63.83 2.14L63.83 2.14Q64.50 1.61 65.29 1.41L65.29 1.41L65.29 1.41Q66.08 1.20 66.78 1.20ZM66.78 9.13L66.78 9.13L66.78 9.13Q67.34 9.13 67.79 8.95L67.79 8.95L67.79 8.95Q68.24 8.76 68.55 8.38L68.55 8.38L68.55 8.38Q68.87 7.99 69.03 7.39L69.03 7.39L69.03 7.39Q69.20 6.79 69.20 5.94L69.20 5.94L69.20 5.94Q69.20 5.10 69.03 4.49L69.03 4.49L69.03 4.49Q68.87 3.89 68.55 3.51L68.55 3.51L68.55 3.51Q68.24 3.12 67.79 2.93L67.79 2.93L67.79 2.93Q67.34 2.74 66.78 2.74L66.78 2.74L66.78 2.74Q65.66 2.74 65.00 3.51L65.00 3.51L65.00 3.51Q64.33 4.27 64.33 5.94L64.33 5.94L64.33 5.94Q64.33 6.79 64.50 7.39L64.50 7.39L64.50 7.39Q64.68 7.99 65.00 8.38L65.00 8.38L65.00 8.38Q65.32 8.76 65.77 8.95L65.77 8.95L65.77 8.95Q66.22 9.13 66.78 9.13ZM72.02 1.36L79.07 1.36L79.07 2.88L76.52 2.88L76.52 10.50L74.58 10.50L74.58 2.88L72.02 2.88L72.02 1.36ZM82.28 6.55L82.28 8.95L85.82 8.95L85.82 10.50L80.32 10.50L80.32 1.36L85.82 1.36L85.53 2.91L82.28 2.91L82.28 5.00L85.53 5.00L85.53 6.55L82.28 6.55ZM93.62 2.30L92.93 3.95L92.93 3.95Q92.40 3.54 91.83 3.32L91.83 3.32L91.83 3.32Q91.27 3.09 90.76 3.09L90.76 3.09L90.76 3.09Q90.22 3.09 89.95 3.24L89.95 3.24L89.95 3.24Q89.68 3.39 89.68 3.88L89.68 3.88L89.68 3.88Q89.68 4.13 89.79 4.31L89.79 4.31L89.79 4.31Q89.89 4.49 90.09 4.63L90.09 4.63L90.09 4.63Q90.29 4.77 90.56 4.88L90.56 4.88L90.56 4.88Q90.83 4.98 91.15 5.10L91.15 5.10L91.15 5.10Q91.63 5.25 92.12 5.45L92.12 5.45L92.12 5.45Q92.61 5.64 93.01 5.95L93.01 5.95L93.01 5.95Q93.41 6.26 93.66 6.73L93.66 6.73L93.66 6.73Q93.91 7.21 93.91 7.94L93.91 7.94L93.91 7.94Q93.91 8.65 93.64 9.16L93.64 9.16L93.64 9.16Q93.37 9.67 92.92 10.00L92.92 10.00L92.92 10.00Q92.47 10.33 91.90 10.49L91.90 10.49L91.90 10.49Q91.32 10.65 90.71 10.65L90.71 10.65L90.71 10.65Q89.81 10.65 88.93 10.30L88.93 10.30L88.93 10.30Q88.06 9.95 87.42 9.27L87.42 9.27L88.09 7.67L88.09 7.67Q88.66 8.27 89.38 8.61L89.38 8.61L89.38 8.61Q90.10 8.95 90.76 8.95L90.76 8.95L90.76 8.95Q91.35 8.95 91.66 8.78L91.66 8.78L91.66 8.78Q91.98 8.61 91.99 8.09L91.99 8.09L91.99 8.09Q91.99 7.80 91.88 7.59L91.88 7.59L91.88 7.59Q91.77 7.38 91.56 7.22L91.56 7.22L91.56 7.22Q91.35 7.07 91.07 6.96L91.07 6.96L91.07 6.96Q90.79 6.85 90.45 6.73L90.45 6.73L90.45 6.73Q89.98 6.58 89.50 6.39L89.50 6.39L89.50 6.39Q89.03 6.20 88.65 5.89L88.65 5.89L88.65 5.89Q88.27 5.59 88.04 5.13L88.04 5.13L88.04 5.13Q87.81 4.68 87.81 3.98L87.81 3.98L87.81 3.98Q87.81 3.28 88.06 2.78L88.06 2.78L88.06 2.78Q88.31 2.28 88.73 1.97L88.73 1.97L88.73 1.97Q89.15 1.65 89.70 1.50L89.70 1.50L89.70 1.50Q90.24 1.36 90.83 1.36L90.83 1.36L90.83 1.36Q91.59 1.36 92.31 1.61L92.31 1.61L92.31 1.61Q93.03 1.86 93.62 2.30L93.62 2.30Z"></path></g><!----><g data-v-423bf9ae="" id="0413a877-ab48-4508-b019-ba4ef89cea04" transform="matrix(1.037777794731988,0,0,1.037777794731988,-13.414329390631693,-2.558668292575433)" stroke="none" fill="#2B4A4D"><path d="M77.5 21.2H28.2v29h49.2v-29zm-45.3 4h41.2v20l-7.6-11c-1-1.4-3.3-1.4-4.3 0L54 45.4l-3.5-5.1c-1-1.4-3.3-1.4-4.3 0l-3.7 5.4-.3.6h-10V25.2z"></path><circle cx="39.6" cy="32.6" r="5.1"></circle><path d="M76.5 55H28.8c-.8 0-1.5.7-1.5 1.5S28 58 28.8 58h47.8c.8 0 1.5-.7 1.5-1.5s-.8-1.5-1.6-1.5zM76.5 65H28.8c-.8 0-1.5.7-1.5 1.5S28 68 28.8 68h47.8c.8 0 1.5-.7 1.5-1.5s-.8-1.5-1.6-1.5zM76.5 13H28.8c-.8 0-1.5.7-1.5 1.5S28 16 28.8 16h47.8c.8 0 1.5-.7 1.5-1.5s-.8-1.5-1.6-1.5zM76.5 75H28.8c-.8 0-1.5.7-1.5 1.5S28 78 28.8 78h47.8c.8 0 1.5-.7 1.5-1.5s-.8-1.5-1.6-1.5z"></path><path d="M78.9 2.5H26.8c-3.3 0-6 2.7-6 6v2.6h-1c-3.3 0-6 2.7-6 6v72.8c0 3.3 2.7 6 6 6h50.9c3.3 0 6-2.7 6-6v-1h2.2c3.3 0 6-2.7 6-6V8.5c0-3.3-2.7-6-6-6zm-6.2 87.4c0 1.1-.9 2-2 2H19.8c-1.1 0-2-.9-2-2V17.1c0-1.1.9-2 2-2h1v67.8c0 3.3 2.7 6 6 6h45.9v1zm8.2-7c0 1.1-.9 2-2 2H26.8c-1.1 0-2-.9-2-2V8.5c0-1.1.9-2 2-2h52.1c1.1 0 2 .9 2 2v74.4z"></path></g><!----></svg>