<?xml version="1.0" encoding="utf-8"?>
<svg viewBox="0 0 500 500" width="500" height="500" xmlns="http://www.w3.org/2000/svg">
  <g data-v-423bf9ae="" id="0413a877-ab48-4508-b019-ba4ef89cea04" transform="matrix(5.115528, 0, 0, 5.115528, -1.785408, -3.26826)" stroke="none" fill="#2B4A4D" style="">
    <path d="M77.5 21.2H28.2v29h49.2v-29zm-45.3 4h41.2v20l-7.6-11c-1-1.4-3.3-1.4-4.3 0L54 45.4l-3.5-5.1c-1-1.4-3.3-1.4-4.3 0l-3.7 5.4-.3.6h-10V25.2z"/>
    <circle cx="39.6" cy="32.6" r="5.1"/>
    <path d="M76.5 55H28.8c-.8 0-1.5.7-1.5 1.5S28 58 28.8 58h47.8c.8 0 1.5-.7 1.5-1.5s-.8-1.5-1.6-1.5zM76.5 65H28.8c-.8 0-1.5.7-1.5 1.5S28 68 28.8 68h47.8c.8 0 1.5-.7 1.5-1.5s-.8-1.5-1.6-1.5zM76.5 13H28.8c-.8 0-1.5.7-1.5 1.5S28 16 28.8 16h47.8c.8 0 1.5-.7 1.5-1.5s-.8-1.5-1.6-1.5zM76.5 75H28.8c-.8 0-1.5.7-1.5 1.5S28 78 28.8 78h47.8c.8 0 1.5-.7 1.5-1.5s-.8-1.5-1.6-1.5z"/>
    <path d="M78.9 2.5H26.8c-3.3 0-6 2.7-6 6v2.6h-1c-3.3 0-6 2.7-6 6v72.8c0 3.3 2.7 6 6 6h50.9c3.3 0 6-2.7 6-6v-1h2.2c3.3 0 6-2.7 6-6V8.5c0-3.3-2.7-6-6-6zm-6.2 87.4c0 1.1-.9 2-2 2H19.8c-1.1 0-2-.9-2-2V17.1c0-1.1.9-2 2-2h1v67.8c0 3.3 2.7 6 6 6h45.9v1zm8.2-7c0 1.1-.9 2-2 2H26.8c-1.1 0-2-.9-2-2V8.5c0-1.1.9-2 2-2h52.1c1.1 0 2 .9 2 2v74.4z"/>
  </g>
</svg>